# xmcd
#
# Track frame offsets:
#	150
#	13217
#	27842
#	38380
#	53155
#	66442
#	81702
#	90787
#	106532
#	118017
#	133955
#	144745
#	159402
#	168557
#
# Disc length: 2456 seconds
#
# Revision: 1
# Processed by: cddbd v1.4PL0 Copyright (c) Steve Scherf et al.
# Submitted via: audiograbber 1.81.01
#
DISCID=b709960e
DTITLE=Wayne Erbsen - SingingRails
DYEAR=1900
DGENRE=Country
TTITLE0=Cannonball Blues
TTITLE1=Railroad On The Great Divide
TTITLE2=On The Dummy Line
TTITLE3=Nine Hundred Miles
TTITLE4=John Henry
TTITLE5=The Death Of Edward Lewis
TTITLE6=Freight Train Boogie
TTITLE7=Lonesome Pine Special
TTITLE8=Train On The Island
TTITLE9=Railroad Bill
TTITLE10=Railroadin' and Gamblin
TTITLE11=Swannanoa Tunnel
TTITLE12=Poor Casey
TTITLE13=Midnight Special
EXTD=
EXTT0=
EXTT1=
EXTT2=
EXTT3=
EXTT4=
EXTT5=
EXTT6=
EXTT7=
EXTT8=
EXTT9=
EXTT10=
EXTT11=
EXTT12=
EXTT13=
PLAYORDER=
